{"title":"Red Dawn 2012 BRRIP XVID juggs","uid":8178050,"size":742676139,"categoryP":"video","categoryS":"movies","magnet":"?xt=urn:btih:eff82ac4c9c7455dcd54fa3f2643b98057b86a64&amp;dn=Red+Dawn+2012+BRRIP+XVID+juggs&amp;tr=udp%3A%2F%2Ftracker.openbittorrent.com%3A80&amp;tr=udp%3A%2F%2Fopen.demonii.com%3A1337&amp;tr=udp%3A%2F%2Ftracker.coppersurfer.tk%3A6969&amp;tr=udp%3A%2F%2Fexodus.desync.com%3A6969","seeders":4,"leechers":2,"uploader":"juggs99","files":3,"time":1361567606,"description":" &lt;a href=&quot;http://www.shotpix.com/images/55277183706325097138.png&quot; rel=&quot;nofollow&quot; target=&quot;_NEW&quot;&gt;http://www.shotpix.com/images/55277183706325097138.png&lt;/a&gt;\n\n &lt;a href=&quot;\nhttp://www.imdb.com/title/tt1234719/&quot; rel=&quot;nofollow&quot; target=&quot;_NEW&quot;&gt;\nhttp://www.imdb.com/title/tt1234719/&lt;/a&gt;\n\nFormat                                   : AVI\nFormat/Info                              : Audio Video Interleave\nFile size                                : 702 MiB\nDuration                                 : 1h 33mn\nOverall bit rate                         : 1 052 Kbps\nWriting library                          : VirtualDub build 32842/release\n\nVideo\nID                                       : 0\nFormat                                   : MPEG-4 Visual\nFormat profile                           : Advanced Simple@L5\nFormat settings, BVOP                    : 4\nFormat settings, QPel                    : No\nFormat settings, GMC                     : No warppoints\nFormat settings, Matrix                  : Default (H.263)\nMuxing mode                              : Packed bitstream\nCodec ID                                 : XVID\nCodec ID/Hint                            : XviD\nDuration                                 : 1h 33mn\nBit rate                                 : 914 Kbps\nWidth                                    : 640 pixels\nHeight                                   : 272 pixels\nDisplay aspect ratio                     : 2.35:1\nFrame rate                               : 23.976 fps\nColor space                              : YUV\nChroma subsampling                       : 4:2:0\nBit depth                                : 8 bits\nScan type                                : Progressive\nCompression mode                         : Lossy\nBits/(Pixel*Frame)                       : 0.219\nStream size                              : 610 MiB (87%)\nWriting library                          : XviD 64\n\nAudio\nID                                       : 1\nFormat                                   : MPEG Audio\nFormat version                           : Version 1\nFormat profile                           : Layer 3\nCodec ID                                 : 55\nCodec ID/Hint                            : MP3\nDuration                                 : 1h 33mn\nBit rate mode                            : Constant\nBit rate                                 : 128 Kbps\nChannel(s)                               : 2 channels\nSampling rate                            : 44.1 KHz\nCompression mode                         : Lossy\nStream size                              : 85.5 MiB (12%)\nAlignment                                : Split accross interleaves\nInterleave, duration                     : 42 ms (1.00 video frame)\nInterleave, preload duration             : 500 ms\nWriting library                          : LAME3.99r\nEncoding settings                        : -m s -V 4 -q 3 -lowpass 17 -b 128\n\n\nPlot\nA group of teenagers look to save their town from an invasion of North Korean soldiers.\n\n &lt;a href=&quot;\nhttp://www.shotpix.com/images/99940195260120162072.png&quot; rel=&quot;nofollow&quot; target=&quot;_NEW&quot;&gt;\nhttp://www.shotpix.com/images/99940195260120162072.png&lt;/a&gt; &lt;a href=&quot;\nhttp://www.shotpix.com/images/31617087914159447463.png&quot; rel=&quot;nofollow&quot; target=&quot;_NEW&quot;&gt;\nhttp://www.shotpix.com/images/31617087914159447463.png&lt;/a&gt; &lt;a href=&quot;\nhttp://www.shotpix.com/images/00379164421169806320.png&quot; rel=&quot;nofollow&quot; target=&quot;_NEW&quot;&gt;\nhttp://www.shotpix.com/images/00379164421169806320.png&lt;/a&gt; &lt;a href=&quot;\nhttp://www.shotpix.com/images/33436854813200478402.png&quot; rel=&quot;nofollow&quot; target=&quot;_NEW&quot;&gt;\nhttp://www.shotpix.com/images/33436854813200478402.png&lt;/a&gt;","torrent":{"xt":"urn:btih:eff82ac4c9c7455dcd54fa3f2643b98057b86a64","amp;dn":"Red+Dawn+2012+BRRIP+XVID+juggs","amp;tr":["udp%3A%2F%2Ftracker.openbittorrent.com%3A80","udp%3A%2F%2Fopen.demonii.com%3A1337","udp%3A%2F%2Ftracker.coppersurfer.tk%3A6969","udp%3A%2F%2Fexodus.desync.com%3A6969"],"infoHash":"eff82ac4c9c7455dcd54fa3f2643b98057b86a64","infoHashBuffer":{"type":"Buffer","data":[239,248,42,196,201,199,69,93,205,84,250,63,38,67,185,128,87,184,106,100]},"announce":[],"urlList":[]}}